<?xml version="1.0" standalone="no"?>
<!DOCTYPE svg PUBLIC "-//W3C//DTD SVG 20010904//EN"
 "http://www.w3.org/TR/2001/REC-SVG-20010904/DTD/svg10.dtd">
<svg version="1.0" xmlns="http://www.w3.org/2000/svg"
 width="228.000000pt" height="220.000000pt" viewBox="0 0 228.000000 220.000000"
 preserveAspectRatio="xMidYMid meet">

<g transform="translate(0.000000,220.000000) scale(0.100000,-0.100000)"
fill="#000000" stroke="none">
<path d="M395 2048 c-109 -14 -231 -94 -291 -190 -97 -153 -81 -368 38 -501
l33 -37 145 120 145 121 24 -28 c96 -113 129 -134 149 -95 13 25 6 39 -57 110
-55 64 -55 64 -34 80 102 80 273 228 273 237 0 19 -84 101 -131 128 -88 51
-188 70 -294 55z m220 -108 c33 -15 69 -37 80 -49 l20 -23 -31 -26 c-97 -84
-488 -397 -498 -400 -8 -2 -24 21 -37 50 -33 73 -33 210 -1 279 83 176 288
251 467 169z"/>
<path d="M1689 2032 c-71 -27 -131 -66 -177 -116 -23 -25 -42 -50 -42 -54 0
-5 57 -58 128 -117 70 -60 133 -114 141 -121 11 -10 3 -24 -43 -80 -64 -78
-72 -117 -25 -122 21 -3 36 9 84 68 51 62 60 69 74 57 9 -8 76 -64 150 -127
l135 -112 28 33 c44 51 85 143 99 219 32 178 -72 375 -240 454 -58 27 -78 31
-166 33 -75 2 -111 -2 -146 -15z m286 -94 c65 -33 130 -104 162 -176 21 -46
26 -73 27 -138 0 -70 -4 -89 -29 -139 -17 -32 -34 -57 -40 -55 -15 4 -515 433
-515 441 0 10 96 70 138 85 61 23 196 13 257 -18z"/>
<path d="M912 1909 c-18 -7 -23 -15 -20 -36 l3 -28 103 -3 102 -3 0 -73 c0
-61 3 -76 21 -92 15 -14 24 -16 37 -8 13 9 18 29 20 93 l3 81 99 0 c90 0 100
2 110 21 9 16 8 25 -6 40 -16 18 -32 19 -233 18 -119 0 -226 -4 -239 -10z"/>
<path d="M1355 1110 l-210 -210 -140 141 c-173 174 -206 193 -236 138 -15 -28
10 -67 88 -138 l68 -62 -40 8 c-22 4 -71 8 -110 7 -109 -1 -191 -50 -272 -160
-57 -78 -67 -70 -61 51 l3 83 -45 5 c-25 3 -47 3 -50 0 -12 -12 -2 -232 13
-293 26 -100 108 -256 172 -327 36 -40 54 -67 49 -75 -4 -7 -36 -45 -71 -84
-63 -72 -77 -106 -51 -132 28 -28 56 -12 129 71 40 45 74 83 75 85 1 2 49 -19
106 -47 142 -70 205 -85 358 -85 155 0 218 15 365 88 60 31 109 54 110 53 0
-1 34 -39 74 -84 73 -83 101 -99 129 -71 26 26 12 60 -51 132 -35 39 -67 77
-71 83 -4 8 15 39 50 79 62 74 135 214 159 309 9 33 19 105 22 161 l6 101 -33
6 c-69 14 -70 13 -70 -57 l0 -64 -49 -37 c-123 -90 -220 -86 -443 17 -49 23
-88 43 -88 47 0 3 90 96 200 206 197 198 217 224 188 253 -34 34 -58 16 -273
-198z m-421 -453 c9 -14 7 -21 -7 -32 -33 -24 -71 11 -46 42 15 18 39 13 53
-10z m-74 -127 c30 -30 27 -83 -6 -109 -35 -28 -69 -26 -99 4 -50 49 -19 125
50 125 22 0 43 -8 55 -20z m97 -176 c9 -24 -10 -49 -38 -49 -24 0 -36 23 -25
51 7 19 55 18 63 -2z"/>
</g>
</svg>
